<svg id="Layer_1" data-name="Layer 1" xmlns="http://www.w3.org/2000/svg" viewBox="0 0 168 63.6"><defs><style>.cls-1{font-size:18.19px;font-family:ArialMT, Arial;}.cls-1,.cls-2{fill:#e6e7e8;}</style></defs><text class="cls-1" transform="translate(29.37 56.34)">Roomsensors</text><path class="cls-2" d="M79.76,29.86l-.14,1.35H81l-.73,7H78.92l-.14,1.35h5.33l.14-1.35h-.83l.63-6.07a3.59,3.59,0,0,1,1.83-.66c.75,0,1,.44.93,1.46l-.55,5.27H85.5l-.14,1.35h5.28l.14-1.35H89.46L90,32.73c.21-2-.69-3.14-2.4-3.14a6.26,6.26,0,0,0-3.45,1.34l.11-1.07Z"/><path class="cls-2" d="M118.6,33.55c-1.45-.95-1.61-1.13-1.55-1.71a1.09,1.09,0,0,1,1.13-.8,1.61,1.61,0,0,1,1.6,1.49h.82l.3-2.84h-1l0,.44a3.72,3.72,0,0,0-1.92-.49,3.56,3.56,0,0,0-3.76,3,2.79,2.79,0,0,0,.83,2.27c.27.22.65.57,1.22,1l.58.47c.74.51.92.75.87,1.22a1.15,1.15,0,0,1-1.14.89,2,2,0,0,1-2-2h-.86l-.34,3.2h.83l.33-.56a4.18,4.18,0,0,0,2.27.6c2.16,0,3.81-1.28,4-3C121,35.57,120.41,34.77,118.6,33.55Z"/><path class="cls-2" d="M98.29,26.89,95,28.51l-.16,1.33H93.28l-.15,1.33-.06,0h1.56l-.53,5.21c-.19,2,.82,3.24,2.79,3.24a5.1,5.1,0,0,0,2.9-.69.46.46,0,0,0,.17-.14l-.23-1.13c-1,.61-1.44.5-2,.13h0c-.36-.25-.42-.88-.32-1.88l.48-4.74h2.58l.14-1.35H98Z"/><polygon class="cls-2" points="109.22 31.21 110.31 31.21 107.69 35.94 106.46 31.21 107.56 31.21 107.7 29.86 102.25 29.86 102.1 31.21 103.39 31.21 105.51 39.16 102.12 44.96 104.9 44.96 111.61 31.21 112.74 31.21 112.89 29.86 109.36 29.86 109.22 31.21"/><path class="cls-2" d="M58.61,19.15a43,43,0,0,1,10.8-1.6,40.58,40.58,0,0,1,10.88,2.11c.67.2,1.44.09,1.62-.56.1-.32.14-1.08-1.11-2.18a21.69,21.69,0,0,0-7.92-4.27C66.35,5.84,60.66,4.93,60.66,4.93c1.92,2,2.84,7.47,2.17,7.7C52,15.94,48.93,22.5,48.93,22.5c.79-.66,4.16-3.78,11.76-5.06Z"/><path class="cls-2" d="M66.41,6.08C69.84,7.79,72.83,12,72.83,12,72,7.85,66.2.05,66.29.67A23.92,23.92,0,0,1,66.41,6.08Z"/><path class="cls-2" d="M56.64,26.22l-.14,1.45h1.37l-.47,4.78,0,0-.05,0a17.93,17.93,0,0,1-4.8-1c-1.75-.68-3.68-1.85-4.18-3.55-.63-2.38,1-4.22,2.1-5.1l0,2.06a12.72,12.72,0,0,1,2.12-3.77c-3.76,2.07-4.91,4.09-5.34,5.54a4.51,4.51,0,0,0-.08,1.74,5.15,5.15,0,0,0,2,3.05,16,16,0,0,0,8,3l0,0,0,0-.37,3.67H55.5l-.14,1.44h6l.14-1.44H60.19l.34-3.48,0,0,.05,0c1.2,0,3,0,3,0l.29-3.16H63l-.38,1.1c-.71.06-1.66.05-1.86.05l-.06,0,0-.06,0-.39.45-4.47h3.49l-.17,1.76H66l.32-3.21Z"/><path class="cls-2" d="M72.42,29.59c3.22,0,5.26,2.11,5,5.09a5.28,5.28,0,0,1-1.88,3.53,5.89,5.89,0,0,1-4.18,1.47c-3.19,0-5.3-2.13-5-5A5.82,5.82,0,0,1,72.42,29.59Zm-2.56,5.13c-.27,2.56.26,3.83,1.55,3.83s2.15-1.25,2.42-3.83-.28-3.84-1.57-3.84S70.14,32.08,69.86,34.72Z"/></svg>